<svg width="281" height="227" viewBox="0 0 281 227" fill="none" xmlns="http://www.w3.org/2000/svg">
<path d="M203 72H118H34.358C33.684 72 33.203 72.6532 33.4031 73.2968L55.7814 145.297C55.9114 145.715 56.2984 146 56.7364 146H120H184.219C184.678 146 185.078 145.688 185.189 145.243L219.811 6.75746C219.922 6.3123 220.322 6 220.781 6H275M175 186H110H45" stroke="#007848" stroke-width="12" stroke-linecap="round" stroke-linejoin="round"/>
<path d="M191 54H7.37388C6.69524 54 6.2137 54.6616 6.42229 55.3074L42.2763 166.307C42.4096 166.72 42.794 167 43.2279 167H179M180.5 94H63.854C63.1812 94 62.7003 94.651 62.8982 95.2941L72.2828 125.794C72.4119 126.214 72.7996 126.5 73.2386 126.5H172.5" stroke="#F15A11" stroke-width="12" stroke-linecap="round" stroke-linejoin="round"/>
<circle cx="61" cy="214" r="13" fill="#F15A11"/>
<circle cx="159" cy="214" r="13" fill="#F15A11"/>
</svg>
